<?xml version="1.0" encoding="iso-8859-1"?>
<!-- Generator: Adobe Illustrator 19.0.0, SVG Export Plug-In . SVG Version: 6.00 Build 0)  -->
<svg xmlns="http://www.w3.org/2000/svg" xmlns:xlink="http://www.w3.org/1999/xlink" version="1.1" id="Capa_1" x="0px" y="0px" viewBox="0 0 224.045 224.045" style="enable-background:new 0 0 224.045 224.045;" xml:space="preserve" width="512px" height="512px">
<path d="M123.768,155.609c39-3.697,84.207-27.95,86.287-29.064l7.221-3.823l-6.575-4.669c-0.108-0.076-10.844-7.68-16.14-12.415  c-8.744-7.819-72.713-65.365-80.199-72.098c-2.592-5.058-15.475-28.1-37.208-32.552C73.952,0.332,70.809,0,67.804,0  c-24.28,0-33.815,20.574-36.159,26.88c-4.893,13.158-6.057,23.203-6.104,23.625l-0.898,8.014l10.016-3.646  c3.279,7.594,9.11,12.532,12.726,14.973c-3.169,44.892,12.384,72.803,46.384,83.102v15.098h-87v25h84v31h37v-31h84v-25h-88V155.609z   M61.416,39.434c-3.583,0-6.488-2.905-6.488-6.488c0-3.583,2.905-6.488,6.488-6.488c3.583,0,6.488,2.905,6.488,6.488  C67.904,36.53,64.999,39.434,61.416,39.434z" fill="#ff0080"/>
<g>
</g>
<g>
</g>
<g>
</g>
<g>
</g>
<g>
</g>
<g>
</g>
<g>
</g>
<g>
</g>
<g>
</g>
<g>
</g>
<g>
</g>
<g>
</g>
<g>
</g>
<g>
</g>
<g>
</g>
</svg>
