<svg xmlns="http://www.w3.org/2000/svg" width="1056" height="851"><g><path d="M-121,-51L-132,17L33,-75Z" fill="#fcffff" stroke="#fcffff" fill-opacity="1" stroke-opacity="1"/><path d="M-121,-51L33,-75L169,-128Z" fill="#f7f4f9" stroke="#f7f4f9" fill-opacity="1" stroke-opacity="1"/><path d="M33,-75L-132,17L105,23Z" fill="#f8f7fb" stroke="#f8f7fb" fill-opacity="1" stroke-opacity="1"/><path d="M33,-75L105,23L169,-128Z" fill="#f3ecf5" stroke="#f3ecf5" fill-opacity="1" stroke-opacity="1"/><path d="M169,-128L105,23L228,88Z" fill="#f0e5f1" stroke="#f0e5f1" fill-opacity="1" stroke-opacity="1"/><path d="M169,-128L228,88L384,-39Z" fill="#ebdbec" stroke="#ebdbec" fill-opacity="1" stroke-opacity="1"/><path d="M169,-128L384,-39L495,-50Z" fill="#edcde5" stroke="#edcde5" fill-opacity="1" stroke-opacity="1"/><path d="M169,-128L495,-50L694,-88Z" fill="#eebedd" stroke="#eebedd" fill-opacity="1" stroke-opacity="1"/><path d="M169,-128L694,-88L860,-95Z" fill="#eeabd0" stroke="#eeabd0" fill-opacity="1" stroke-opacity="1"/><path d="M384,-39L228,88L372,132Z" fill="#eccbe7" stroke="#eccbe7" fill-opacity="1" stroke-opacity="1"/><path d="M384,-39L372,132L495,-50Z" fill="#eec2e0" stroke="#eec2e0" fill-opacity="1" stroke-opacity="1"/><path d="M495,-50L372,132L571,34Z" fill="#efb6db" stroke="#efb6db" fill-opacity="1" stroke-opacity="1"/><path d="M495,-50L571,34L694,-88Z" fill="#eda9ce" stroke="#eda9ce" fill-opacity="1" stroke-opacity="1"/><path d="M694,-88L571,34L616,76Z" fill="#eca2c7" stroke="#eca2c7" fill-opacity="1" stroke-opacity="1"/><path d="M694,-88L616,76L789,31Z" fill="#ea97ba" stroke="#ea97ba" fill-opacity="1" stroke-opacity="1"/><path d="M694,-88L789,31L860,-95Z" fill="#e78aad" stroke="#e78aad" fill-opacity="1" stroke-opacity="1"/><path d="M860,-95L789,31L955,-60Z" fill="#e4809e" stroke="#e4809e" fill-opacity="1" stroke-opacity="1"/><path d="M860,-95L955,-60L1110,-45Z" fill="#e1808c" stroke="#e1808c" fill-opacity="1" stroke-opacity="1"/><path d="M860,-95L1110,-45L1327,-38Z" fill="#dd8080" stroke="#dd8080" fill-opacity="1" stroke-opacity="1"/><path d="M955,-60L789,31L961,88Z" fill="#e37e98" stroke="#e37e98" fill-opacity="1" stroke-opacity="1"/><path d="M955,-60L961,88L1110,-45Z" fill="#e08086" stroke="#e08086" fill-opacity="1" stroke-opacity="1"/><path d="M1110,-45L961,88L1124,74Z" fill="#de7c80" stroke="#de7c80" fill-opacity="1" stroke-opacity="1"/><path d="M1110,-45L1124,74L1308,32Z" fill="#da7e80" stroke="#da7e80" fill-opacity="1" stroke-opacity="1"/><path d="M1110,-45L1308,32L1327,-38Z" fill="#d88080" stroke="#d88080" fill-opacity="1" stroke-opacity="1"/><path d="M1327,-38L1308,32L1282,213Z" fill="#d67980" stroke="#d67980" fill-opacity="1" stroke-opacity="1"/><path d="M1327,-38L1282,213L1284,466Z" fill="#d66c80" stroke="#d66c80" fill-opacity="1" stroke-opacity="1"/><path d="M1327,-38L1284,466L1331,727Z" fill="#d6456e" stroke="#d6456e" fill-opacity="1" stroke-opacity="1"/><path d="M-132,17L-124,197L54,212Z" fill="#fcf1ff" stroke="#fcf1ff" fill-opacity="1" stroke-opacity="1"/><path d="M-132,17L54,212L105,23Z" fill="#f8eefa" stroke="#f8eefa" fill-opacity="1" stroke-opacity="1"/><path d="M105,23L54,212L228,88Z" fill="#f2dff3" stroke="#f2dff3" fill-opacity="1" stroke-opacity="1"/><path d="M228,88L54,212L241,281Z" fill="#f0d2f1" stroke="#f0d2f1" fill-opacity="1" stroke-opacity="1"/><path d="M228,88L241,281L372,132Z" fill="#ebc8eb" stroke="#ebc8eb" fill-opacity="1" stroke-opacity="1"/><path d="M372,132L241,281L363,280Z" fill="#ecb9e5" stroke="#ecb9e5" fill-opacity="1" stroke-opacity="1"/><path d="M372,132L363,280L564,284Z" fill="#eea9dd" stroke="#eea9dd" fill-opacity="1" stroke-opacity="1"/><path d="M372,132L564,284L616,76Z" fill="#efa5d9" stroke="#efa5d9" fill-opacity="1" stroke-opacity="1"/><path d="M372,132L616,76L571,34Z" fill="#efacd8" stroke="#efacd8" fill-opacity="1" stroke-opacity="1"/><path d="M616,76L564,284L679,225Z" fill="#ec92c8" stroke="#ec92c8" fill-opacity="1" stroke-opacity="1"/><path d="M616,76L679,225L807,183Z" fill="#ea88ba" stroke="#ea88ba" fill-opacity="1" stroke-opacity="1"/><path d="M616,76L807,183L789,31Z" fill="#e988b4" stroke="#e988b4" fill-opacity="1" stroke-opacity="1"/><path d="M789,31L807,183L961,88Z" fill="#e577a0" stroke="#e577a0" fill-opacity="1" stroke-opacity="1"/><path d="M961,88L807,183L974,216Z" fill="#e37196" stroke="#e37196" fill-opacity="1" stroke-opacity="1"/><path d="M961,88L974,216L1124,74Z" fill="#df7484" stroke="#df7484" fill-opacity="1" stroke-opacity="1"/><path d="M1124,74L974,216L1081,254Z" fill="#de6f80" stroke="#de6f80" fill-opacity="1" stroke-opacity="1"/><path d="M1124,74L1081,254L1282,213Z" fill="#db6f80" stroke="#db6f80" fill-opacity="1" stroke-opacity="1"/><path d="M1124,74L1282,213L1308,32Z" fill="#d87680" stroke="#d87680" fill-opacity="1" stroke-opacity="1"/><path d="M-124,197L-89,916L-71,809Z" fill="#f891b2" stroke="#f891b2" fill-opacity="1" stroke-opacity="1"/><path d="M-124,197L-71,809L-62,475Z" fill="#fbaed7" stroke="#fbaed7" fill-opacity="1" stroke-opacity="1"/><path d="M-124,197L-62,475L-60,349Z" fill="#fccff2" stroke="#fccff2" fill-opacity="1" stroke-opacity="1"/><path d="M-124,197L-60,349L54,212Z" fill="#fadff9" stroke="#fadff9" fill-opacity="1" stroke-opacity="1"/><path d="M54,212L-60,349L105,406Z" fill="#f7c7ed" stroke="#f7c7ed" fill-opacity="1" stroke-opacity="1"/><path d="M54,212L105,406L241,281Z" fill="#f2c1ea" stroke="#f2c1ea" fill-opacity="1" stroke-opacity="1"/><path d="M241,281L105,406L221,406Z" fill="#efade0" stroke="#efade0" fill-opacity="1" stroke-opacity="1"/><path d="M241,281L221,406L376,343Z" fill="#eba7dd" stroke="#eba7dd" fill-opacity="1" stroke-opacity="1"/><path d="M241,281L376,343L363,280Z" fill="#eca9de" stroke="#eca9de" fill-opacity="1" stroke-opacity="1"/><path d="M363,280L376,343L564,284Z" fill="#ee99d5" stroke="#ee99d5" fill-opacity="1" stroke-opacity="1"/><path d="M564,284L376,343L562,431Z" fill="#ef83cb" stroke="#ef83cb" fill-opacity="1" stroke-opacity="1"/><path d="M564,284L562,431L703,389Z" fill="#ed6fb9" stroke="#ed6fb9" fill-opacity="1" stroke-opacity="1"/><path d="M564,284L703,389L679,225Z" fill="#eb78ba" stroke="#eb78ba" fill-opacity="1" stroke-opacity="1"/><path d="M679,225L703,389L818,377Z" fill="#e964a8" stroke="#e964a8" fill-opacity="1" stroke-opacity="1"/><path d="M679,225L818,377L807,183Z" fill="#e86eaa" stroke="#e86eaa" fill-opacity="1" stroke-opacity="1"/><path d="M807,183L818,377L974,216Z" fill="#e46299" stroke="#e46299" fill-opacity="1" stroke-opacity="1"/><path d="M974,216L818,377L961,406Z" fill="#e35189" stroke="#e35189" fill-opacity="1" stroke-opacity="1"/><path d="M974,216L961,406L1081,254Z" fill="#e05a7e" stroke="#e05a7e" fill-opacity="1" stroke-opacity="1"/><path d="M1081,254L961,406L1131,316Z" fill="#de5374" stroke="#de5374" fill-opacity="1" stroke-opacity="1"/><path d="M1081,254L1131,316L1282,213Z" fill="#db617b" stroke="#db617b" fill-opacity="1" stroke-opacity="1"/><path d="M1282,213L1131,316L1219,365Z" fill="#d95977" stroke="#d95977" fill-opacity="1" stroke-opacity="1"/><path d="M1282,213L1219,365L1284,466Z" fill="#d84e71" stroke="#d84e71" fill-opacity="1" stroke-opacity="1"/><path d="M-60,349L-62,475L105,406Z" fill="#f9b7e6" stroke="#f9b7e6" fill-opacity="1" stroke-opacity="1"/><path d="M105,406L-62,475L106,572Z" fill="#f5a2d2" stroke="#f5a2d2" fill-opacity="1" stroke-opacity="1"/><path d="M105,406L106,572L183,576Z" fill="#f093c5" stroke="#f093c5" fill-opacity="1" stroke-opacity="1"/><path d="M105,406L183,576L221,406Z" fill="#ef99d1" stroke="#ef99d1" fill-opacity="1" stroke-opacity="1"/><path d="M221,406L183,576L374,578Z" fill="#e984be" stroke="#e984be" fill-opacity="1" stroke-opacity="1"/><path d="M221,406L374,578L376,343Z" fill="#ec8acc" stroke="#ec8acc" fill-opacity="1" stroke-opacity="1"/><path d="M376,343L374,578L562,431Z" fill="#ed77c2" stroke="#ed77c2" fill-opacity="1" stroke-opacity="1"/><path d="M562,431L374,578L540,582Z" fill="#ed5fa9" stroke="#ed5fa9" fill-opacity="1" stroke-opacity="1"/><path d="M562,431L540,582L645,498Z" fill="#ec57a4" stroke="#ec57a4" fill-opacity="1" stroke-opacity="1"/><path d="M562,431L645,498L703,389Z" fill="#eb5bab" stroke="#eb5bab" fill-opacity="1" stroke-opacity="1"/><path d="M703,389L645,498L790,495Z" fill="#e94b99" stroke="#e94b99" fill-opacity="1" stroke-opacity="1"/><path d="M703,389L790,495L818,377Z" fill="#e74a98" stroke="#e74a98" fill-opacity="1" stroke-opacity="1"/><path d="M818,377L790,495L921,486Z" fill="#e53885" stroke="#e53885" fill-opacity="1" stroke-opacity="1"/><path d="M818,377L921,486L961,406Z" fill="#e33d82" stroke="#e33d82" fill-opacity="1" stroke-opacity="1"/><path d="M961,406L921,486L1176,481Z" fill="#df3666" stroke="#df3666" fill-opacity="1" stroke-opacity="1"/><path d="M961,406L1176,481L1131,316Z" fill="#dd426c" stroke="#dd426c" fill-opacity="1" stroke-opacity="1"/><path d="M1131,316L1176,481L1219,365Z" fill="#da456d" stroke="#da456d" fill-opacity="1" stroke-opacity="1"/><path d="M1219,365L1176,481L1284,466Z" fill="#d83a66" stroke="#d83a66" fill-opacity="1" stroke-opacity="1"/><path d="M-62,475L-71,809L-21,643Z" fill="#f68db0" stroke="#f68db0" fill-opacity="1" stroke-opacity="1"/><path d="M-62,475L-21,643L106,572Z" fill="#f597c1" stroke="#f597c1" fill-opacity="1" stroke-opacity="1"/><path d="M106,572L-21,643L76,720Z" fill="#f181aa" stroke="#f181aa" fill-opacity="1" stroke-opacity="1"/><path d="M106,572L76,720L176,643Z" fill="#ee7aa6" stroke="#ee7aa6" fill-opacity="1" stroke-opacity="1"/><path d="M106,572L176,643L183,576Z" fill="#ed80b0" stroke="#ed80b0" fill-opacity="1" stroke-opacity="1"/><path d="M183,576L176,643L348,686Z" fill="#e870a2" stroke="#e870a2" fill-opacity="1" stroke-opacity="1"/><path d="M183,576L348,686L374,578Z" fill="#e86ca3" stroke="#e86ca3" fill-opacity="1" stroke-opacity="1"/><path d="M374,578L348,686L505,673Z" fill="#e95592" stroke="#e95592" fill-opacity="1" stroke-opacity="1"/><path d="M374,578L505,673L540,582Z" fill="#ea5296" stroke="#ea5296" fill-opacity="1" stroke-opacity="1"/><path d="M540,582L505,673L618,644Z" fill="#ea4188" stroke="#ea4188" fill-opacity="1" stroke-opacity="1"/><path d="M540,582L618,644L645,498Z" fill="#ea458f" stroke="#ea458f" fill-opacity="1" stroke-opacity="1"/><path d="M645,498L618,644L790,495Z" fill="#e83e88" stroke="#e83e88" fill-opacity="1" stroke-opacity="1"/><path d="M790,495L618,644L810,682Z" fill="#e4296f" stroke="#e4296f" fill-opacity="1" stroke-opacity="1"/><path d="M790,495L810,682L921,486Z" fill="#e3246c" stroke="#e3246c" fill-opacity="1" stroke-opacity="1"/><path d="M921,486L810,682L977,631Z" fill="#e01955" stroke="#e01955" fill-opacity="1" stroke-opacity="1"/><path d="M921,486L977,631L1176,481Z" fill="#dd2752" stroke="#dd2752" fill-opacity="1" stroke-opacity="1"/><path d="M1176,481L977,631L1155,701Z" fill="#d9193c" stroke="#d9193c" fill-opacity="1" stroke-opacity="1"/><path d="M1176,481L1155,701L1284,466Z" fill="#d7244a" stroke="#d7244a" fill-opacity="1" stroke-opacity="1"/><path d="M1284,466L1155,701L1331,727Z" fill="#d31335" stroke="#d31335" fill-opacity="1" stroke-opacity="1"/><path d="M-21,643L-71,809L76,720Z" fill="#f27899" stroke="#f27899" fill-opacity="1" stroke-opacity="1"/><path d="M76,720L-71,809L32,842Z" fill="#f07687" stroke="#f07687" fill-opacity="1" stroke-opacity="1"/><path d="M76,720L32,842L251,818Z" fill="#ea6a80" stroke="#ea6a80" fill-opacity="1" stroke-opacity="1"/><path d="M76,720L251,818L176,643Z" fill="#e9658e" stroke="#e9658e" fill-opacity="1" stroke-opacity="1"/><path d="M176,643L251,818L348,686Z" fill="#e65d8c" stroke="#e65d8c" fill-opacity="1" stroke-opacity="1"/><path d="M348,686L251,818L382,779Z" fill="#e5517b" stroke="#e5517b" fill-opacity="1" stroke-opacity="1"/><path d="M348,686L382,779L505,673Z" fill="#e74781" stroke="#e74781" fill-opacity="1" stroke-opacity="1"/><path d="M505,673L382,779L543,857Z" fill="#e73b6e" stroke="#e73b6e" fill-opacity="1" stroke-opacity="1"/><path d="M505,673L543,857L618,644Z" fill="#e82e71" stroke="#e82e71" fill-opacity="1" stroke-opacity="1"/><path d="M618,644L543,857L680,848Z" fill="#e52558" stroke="#e52558" fill-opacity="1" stroke-opacity="1"/><path d="M618,644L680,848L810,682Z" fill="#e31757" stroke="#e31757" fill-opacity="1" stroke-opacity="1"/><path d="M810,682L680,848L878,784Z" fill="#df0a3d" stroke="#df0a3d" fill-opacity="1" stroke-opacity="1"/><path d="M810,682L878,784L977,631Z" fill="#de063e" stroke="#de063e" fill-opacity="1" stroke-opacity="1"/><path d="M977,631L878,784L1076,807Z" fill="#da0025" stroke="#da0025" fill-opacity="1" stroke-opacity="1"/><path d="M977,631L1076,807L1155,701Z" fill="#d80320" stroke="#d80320" fill-opacity="1" stroke-opacity="1"/><path d="M1155,701L1076,807L1328,792Z" fill="#d30013" stroke="#d30013" fill-opacity="1" stroke-opacity="1"/><path d="M1155,701L1328,792L1331,727Z" fill="#d10019" stroke="#d10019" fill-opacity="1" stroke-opacity="1"/><path d="M-71,809L-89,916L32,842Z" fill="#f17c7e" stroke="#f17c7e" fill-opacity="1" stroke-opacity="1"/><path d="M32,842L-89,916L64,983Z" fill="#ee777b" stroke="#ee777b" fill-opacity="1" stroke-opacity="1"/><path d="M32,842L64,983L182,978Z" fill="#e96d76" stroke="#e96d76" fill-opacity="1" stroke-opacity="1"/><path d="M32,842L182,978L251,818Z" fill="#e76772" stroke="#e76772" fill-opacity="1" stroke-opacity="1"/><path d="M251,818L182,978L409,929Z" fill="#e2586b" stroke="#e2586b" fill-opacity="1" stroke-opacity="1"/><path d="M251,818L409,929L382,779Z" fill="#e44e66" stroke="#e44e66" fill-opacity="1" stroke-opacity="1"/><path d="M382,779L409,929L543,857Z" fill="#e53f5f" stroke="#e53f5f" fill-opacity="1" stroke-opacity="1"/><path d="M543,857L409,929L469,955Z" fill="#e43b5c" stroke="#e43b5c" fill-opacity="1" stroke-opacity="1"/><path d="M543,857L469,955L667,1032Z" fill="#e32e53" stroke="#e32e53" fill-opacity="1" stroke-opacity="1"/><path d="M543,857L667,1032L680,848Z" fill="#e12347" stroke="#e12347" fill-opacity="1" stroke-opacity="1"/><path d="M680,848L667,1032L808,997Z" fill="#de1538" stroke="#de1538" fill-opacity="1" stroke-opacity="1"/><path d="M680,848L808,997L878,784Z" fill="#dd0a2c" stroke="#dd0a2c" fill-opacity="1" stroke-opacity="1"/><path d="M878,784L808,997L1012,879Z" fill="#d90019" stroke="#d90019" fill-opacity="1" stroke-opacity="1"/><path d="M878,784L1012,879L1076,807Z" fill="#d8000e" stroke="#d8000e" fill-opacity="1" stroke-opacity="1"/><path d="M1012,879L808,997L998,997Z" fill="#d70012" stroke="#d70012" fill-opacity="1" stroke-opacity="1"/><path d="M1012,879L998,997L1167,975Z" fill="#d30000" stroke="#d30000" fill-opacity="1" stroke-opacity="1"/><path d="M1012,879L1167,975L1076,807Z" fill="#d30000" stroke="#d30000" fill-opacity="1" stroke-opacity="1"/><path d="M1076,807L1167,975L1328,792Z" fill="#d10000" stroke="#d10000" fill-opacity="1" stroke-opacity="1"/><path d="M1328,792L1167,975L1220,1034Z" fill="#ce0000" stroke="#ce0000" fill-opacity="1" stroke-opacity="1"/><path d="M64,983L667,1032L182,978Z" fill="#e05569" stroke="#e05569" fill-opacity="1" stroke-opacity="1"/><path d="M182,978L667,1032L469,955Z" fill="#e2405f" stroke="#e2405f" fill-opacity="1" stroke-opacity="1"/><path d="M182,978L469,955L409,929Z" fill="#e24d65" stroke="#e24d65" fill-opacity="1" stroke-opacity="1"/><path d="M667,1032L1220,1034L998,997Z" fill="#d5000e" stroke="#d5000e" fill-opacity="1" stroke-opacity="1"/><path d="M667,1032L998,997L808,997Z" fill="#d90426" stroke="#d90426" fill-opacity="1" stroke-opacity="1"/><path d="M998,997L1220,1034L1167,975Z" fill="#d00000" stroke="#d00000" fill-opacity="1" stroke-opacity="1"/></g></svg>