<?xml version="1.0" encoding="iso-8859-1"?>
<!-- Generator: Adobe Illustrator 18.1.1, SVG Export Plug-In . SVG Version: 6.00 Build 0)  -->
<svg xmlns="http://www.w3.org/2000/svg" xmlns:xlink="http://www.w3.org/1999/xlink" version="1.1" id="Capa_1" x="0px" y="0px" viewBox="0 0 494 494" style="enable-background:new 0 0 494 494;" xml:space="preserve" width="512px" height="512px">
<g>
	<path d="M465.5,168.4c-21.3-32-49.1-48-83.4-48c-32.4,0-48.5,8-48.5,24c0,12.2,5.9,18.3,17.7,18.3   c3.4,0,8.5-1,15.1-3.2c6.7-2.1,11.9-3.1,15.7-3.1c23.6,0,42.6,12.6,57.1,37.7c12.2,20.9,18.3,44.3,18.3,70.2   c0,37.3-12.7,69.4-38,96.2c-25.3,26.9-56.6,40.3-93.9,40.3l-2.9,0.1c3-8.7,5.9-18.4,8.6-27.7c2.7-9.3,4-18,4-26   c0-25.9-3.5-55.2-16.4-88c-14.8-36.2-53.4-77.6-113.2-82.8c-24.8-2.7-37.1-4.4-40.5-14.3c-6.5-17.9-22.6-32.6-37.3-35.7   c-2-0.7-18.8-1.3-17.1-24.3c2.9-39.9-6.1-57.8-6.1-57.8S78.2,81.2,53.9,81.2c-4,0-8.1-0.8-12.2-2.1C20.8,72.6,0,52.4,0,52.4   c0,7.2,3.6,24.2,10.9,50.8c-5.3,12.2-8,21.9-8,29.1c0,9.9,6.3,23,18.8,39.1c12.6,16.2,21.9,27.7,15.4,60.8   c-3,15.3,6.7,28.2,20,43.4c11.4,12.2,22.7,24.2,33.7,36c4.2,5.7,6.3,15.6,6.3,29.7c0,5.3-0.8,15.4-2.3,30.3   c-1.9,16.4-3.6,25.5-5.1,27.4c-4.2,2.3-8.6,4.8-13.1,7.4c-6.9,4.2-10.3,9.1-10.3,14.8c0,6.5,6.5,9.7,19.4,9.7   c17.1,0,28.6-3.6,34.3-10.9c4.6-4.9,8.6-16.4,12-34.3c2.7,33.1,16.2,64,98.2,64c8.8,0,22.5-0.1,39.2-4.5   c16.8-4.4,28.6-8.4,37.3-8.1H317c50.3,1.5,92.3-14.5,126.2-48C477,355.9,494,314.2,494,264.3C494,228.1,484.5,196.1,465.5,168.4z    M37.4,147.3c0,0,2.6-2.3,8-0.2c-1.3,2.4-2.5,3.8-4,3.9C39.3,151,37.4,147.3,37.4,147.3z M62.9,138.5c-3.8,0-8.5-1.1-12.7-3.8   c2-7.3,9.1-10.8,9.1-10.8l4.6,11.4l0.6-12c5.8-0.1,11.3,4.2,11.3,4.2S71.7,138.5,62.9,138.5z M12.8,127.4c0,0,5.5-4.3,11.3-4.2   l0.6,12l4.6-11.4c0,0,7.1,3.6,9.1,10.8c-4.2,2.7-8.8,3.8-12.7,3.8C17,138.5,12.8,127.4,12.8,127.4z" fill="#8080ff"/>
</g>
<g>
</g>
<g>
</g>
<g>
</g>
<g>
</g>
<g>
</g>
<g>
</g>
<g>
</g>
<g>
</g>
<g>
</g>
<g>
</g>
<g>
</g>
<g>
</g>
<g>
</g>
<g>
</g>
<g>
</g>
</svg>
